<?xml version="1.0" encoding="iso-8859-1"?>
<!-- Generator: Adobe Illustrator 19.0.0, SVG Export Plug-In . SVG Version: 6.00 Build 0)  -->
<svg version="1.1" id="Layer_1" xmlns="http://www.w3.org/2000/svg" xmlns:xlink="http://www.w3.org/1999/xlink" x="0px" y="0px"
	 viewBox="0 0 356.923 356.923" style="enable-background:new 0 0 356.923 356.923;" xml:space="preserve">
<circle style="fill:#FFD55C;" cx="178.462" cy="178.462" r="178.462"/>
<path style="fill:#FFC640;" d="M27.436,273.497c31.601,50.11,87.404,83.426,151.025,83.426s119.424-33.317,151.025-83.426H27.436z"
	/>
<polygon style="fill:#F2F2F2;" points="216.226,267.847 140.665,267.847 150.252,221.135 206.619,221.135 "/>
<polygon style="fill:#D9D8D7;" points="216.226,267.847 206.619,221.135 150.252,221.135 196.965,267.847 "/>
<rect x="120.443" y="267.84" style="fill:#F2F2F2;" width="116.012" height="5.652"/>
<path style="fill:#242D3C;" d="M40.505,28.923c-3.867,0-7.038,3.188-7.038,7.057v178.102c0,3.882,3.17,7.052,7.038,7.052h275.887
	c3.879,0,7.065-3.17,7.065-7.052V35.98c0-3.87-3.185-7.057-7.065-7.057H40.505z"/>
<rect x="48.123" y="43.569" style="fill:#FFFFFF;" width="260.677" height="162.905"/>
<g>
	<rect x="130.905" y="171.643" style="fill:#D9D8D7;" width="162.855" height="3.239"/>
	<rect x="63.138" y="171.643" style="fill:#D9D8D7;" width="55.06" height="3.239"/>
	<rect x="63.138" y="181.686" style="fill:#D9D8D7;" width="230.622" height="3.239"/>
	<rect x="63.138" y="191.705" style="fill:#D9D8D7;" width="115.308" height="3.239"/>
</g>
<rect x="67.766" y="55.126" style="fill:#FF6D3B;" width="33.716" height="104"/>
<rect x="113.526" y="110.794" style="fill:#D9D8D7;" width="33.716" height="48.342"/>
<rect x="159.311" y="71.911" style="fill:#3E4959;" width="33.716" height="87.22"/>
<rect x="205.095" y="139.938" style="fill:#21D8DE;" width="33.716" height="19.18"/>
<g>
	<rect x="262.671" y="57.831" style="fill:#D9D8D7;" width="16.768" height="3.567"/>
	<rect x="282.092" y="57.831" style="fill:#D9D8D7;" width="7.038" height="3.567"/>
	<rect x="262.671" y="86.449" style="fill:#D9D8D7;" width="26.466" height="3.567"/>
	<rect x="284.948" y="100.751" style="fill:#D9D8D7;" width="4.18" height="3.569"/>
	<rect x="262.671" y="100.751" style="fill:#D9D8D7;" width="20.052" height="3.569"/>
	<rect x="262.671" y="72.14" style="fill:#D9D8D7;" width="4.898" height="3.567"/>
	<rect x="270.966" y="72.14" style="fill:#D9D8D7;" width="7.458" height="3.567"/>
	<rect x="281.674" y="72.14" style="fill:#D9D8D7;" width="7.458" height="3.567"/>
</g>
<circle style="fill:#3E4959;" cx="253.243" cy="59.616" r="4.492"/>
<circle style="fill:#D9D8D7;" cx="253.243" cy="73.92" r="4.492"/>
<circle style="fill:#FF6D3B;" cx="253.243" cy="88.222" r="4.492"/>
<circle style="fill:#21D8DE;" cx="253.243" cy="102.523" r="4.492"/>
<g>
</g>
<g>
</g>
<g>
</g>
<g>
</g>
<g>
</g>
<g>
</g>
<g>
</g>
<g>
</g>
<g>
</g>
<g>
</g>
<g>
</g>
<g>
</g>
<g>
</g>
<g>
</g>
<g>
</g>
</svg>
